<svg id="Layer_1" data-name="Layer 1" xmlns="http://www.w3.org/2000/svg" viewBox="0 0 754.53592 669.99432"><defs><style>.cls-1{fill:#36ea90;}.cls-2{fill:#fa9636;}.cls-3{fill:#fdba46;}.cls-4{fill:#3fffa6;}.cls-5{fill:#f47e39;}.cls-6{fill:#f9f6f4;}.cls-7{fill:#997864;}.cls-11,.cls-12,.cls-8,.cls-9{fill:none;stroke-width:3px;}.cls-8{stroke:#9b89b3;}.cls-11,.cls-12,.cls-8{stroke-miterlimit:10;}.cls-12,.cls-9{stroke:#7fd1ae;}.cls-9{stroke-linecap:round;stroke-linejoin:round;}.cls-10{fill:#ffb1bd;}.cls-11{stroke:#ffbda0;}</style></defs><path class="cls-1" d="M667.83327,267H986.16667A20.83333,20.83333,0,0,1,1007,287.83333V506.16667A20.83333,20.83333,0,0,1,986.16667,527H667.83333A20.83333,20.83333,0,0,1,647,506.16667V287.83327A20.83327,20.83327,0,0,1,667.83327,267Z" transform="translate(-678.55801 -89.24418) rotate(-8.2303)"/><polygon class="cls-2" points="393.512 288.174 215.366 313.941 196.756 185.28 356.292 30.851 393.512 288.174"/><polygon class="cls-2" points="37.22 339.709 215.366 313.941 196.756 185.28 0 82.386 37.22 339.709"/><path class="cls-3" d="M814.128,385.45664,667.46368,551.42851l356.29224-51.53484L834.13172,382.50676A15.64682,15.64682,0,0,0,814.128,385.45664Z" transform="translate(-630.24408 -211.72)"/><path class="cls-2" d="M819.07165,419.63522l-131.89181-87.6791c-19.97606-13.27969-13.01145-44.20309,10.72884-47.63693l220.39818-31.87885c23.81062-3.444,39.2361,24.39041,23.69428,42.755L839.09139,416.796A15.64683,15.64683,0,0,1,819.07165,419.63522Z" transform="translate(-630.24408 -211.72)"/><path class="cls-3" d="M817.92644,411.71761,630.24408,294.10633l356.29224-51.53484L837.94618,408.87842A15.64683,15.64683,0,0,1,817.92644,411.71761Z" transform="translate(-630.24408 -211.72)"/><path class="cls-4" d="M1328.0518,634.34263a.03059.03059,0,0,0-.0197-.03852L985.5063,523.60631l-.00008,0L905.551,771.00705l0,.00007,342.55486,110.70719.00007,0Z" transform="translate(-630.24408 -211.72)"/><path class="cls-3" d="M1212.59789,458.2303a26.21137,26.21137,0,0,0-31.34743-10.08387L985.58691,523.57521a.03059.03059,0,0,0,.00157.05766l342.39015,110.654a.0306.0306,0,0,0,.035-.04591Z" transform="translate(-630.24408 -211.72)"/><path class="cls-5" d="M1113.41,713.1074,985.55585,523.67979a.0306.0306,0,0,1,.03477-.04623l342.38621,110.65269a.03059.03059,0,0,1,.00114.05783L1113.44589,713.119A.03059.03059,0,0,1,1113.41,713.1074Z" transform="translate(-630.24408 -211.72)"/><rect class="cls-6" x="1015.71636" y="477.27046" width="248" height="309" rx="24.75282" transform="translate(-380.73314 -531.59107) rotate(17.90984)"/><path class="cls-2" d="M1248.07688,881.70492l-171.21926-55.33479a.0306.0306,0,0,1-.0197-.03853l39.96339-123.6564a.03057.03057,0,0,1,.01969-.0197l211.18328-68.32356a.03059.03059,0,0,1,.03853.03852L1248.1154,881.68522A.03058.03058,0,0,1,1248.07688,881.70492Z" transform="translate(-630.24408 -211.72)"/><path class="cls-2" d="M905.58013,771.01651l171.21926,55.3348a.0306.0306,0,0,0,.03853-.01971l39.96339-123.6564a.0306.0306,0,0,0-.00445-.0275L985.54163,523.65455a.0306.0306,0,0,0-.05379.00868L905.56043,770.978A.03059.03059,0,0,0,905.58013,771.01651Z" transform="translate(-630.24408 -211.72)"/><path class="cls-3" d="M1129.584,692.80636a15.71572,15.71572,0,0,0-19.29821-6.17851L905.578,770.95911a.0306.0306,0,0,0,.00222.05742L1248.026,881.68847a.03062.03062,0,0,0,.03533-.04541Z" transform="translate(-630.24408 -211.72)"/><path class="cls-7" d="M1253.03561,573.28389c-9.43276-3.09294-13.12525-8.52241-16.38468-13.31534-3.12986-4.60252-5.83288-8.57755-13.41826-11.029s-12.10349-.81015-17.33494,1.09015c-5.47676,1.98933-11.68487,4.24417-21.22863,1.15981-9.54283-3.08406-13.25621-8.54533-16.53242-13.36346-3.12939-4.60237-5.83194-8.57724-13.41547-11.0281-7.584-2.451-12.1021-.8097-17.33308,1.09076-5.4763,1.98948-11.68348,4.24461-21.22677,1.1604-9.54283-3.08406-13.25621-8.54533-16.53242-13.36346-3.10493-4.56638-5.78967-8.51506-13.23854-10.97033a3.13755,3.13755,0,0,1-2.15265-3.68734,3,3,0,0,1,3.82084-2.07967c9.54283,3.08406,13.25575,8.54518,16.532,13.36331,3.12939,4.60237,5.83194,8.57724,13.41593,11.02824s12.1021.80971,17.33308-1.09075c5.4763-1.98948,11.68348-4.24462,21.22677-1.16041,9.54283,3.08406,13.25575,8.54519,16.532,13.36331,3.12939,4.60237,5.83194,8.57725,13.41593,11.02825,7.58539,2.45145,12.10349.81015,17.33494-1.09015,5.47676-1.98934,11.68487-4.24417,21.22863-1.15981s13.25807,8.54593,16.53474,13.36421c3.12986,4.60252,5.83288,8.57754,13.41826,11.029a3.00867,3.00867,0,0,1,1.517,4.61344A3.08513,3.08513,0,0,1,1253.03561,573.28389Z" transform="translate(-630.24408 -211.72)"/><path class="cls-7" d="M1243.81,601.83014c-9.43275-3.09294-13.12524-8.52242-16.38468-13.31535-3.12985-4.60251-5.83287-8.57754-13.41825-11.029s-12.10349-.81016-17.33494,1.09015c-5.47676,1.98933-11.68487,4.24417-21.22863,1.15981-9.54283-3.08406-13.25621-8.54534-16.53242-13.36346-3.12939-4.60237-5.832-8.57725-13.41547-11.0281-7.584-2.451-12.1021-.8097-17.33308,1.09075-5.4763,1.98949-11.68348,4.24462-21.22677,1.16041-9.54283-3.08406-13.25622-8.54533-16.53243-13.36346-3.10492-4.56639-5.78966-8.51506-13.23853-10.97033a3.13755,3.13755,0,0,1-2.15265-3.68734,3,3,0,0,1,3.82083-2.07967c9.54283,3.08406,13.25575,8.54518,16.532,13.36331,3.12939,4.60236,5.832,8.57724,13.41594,11.02824s12.10209.80971,17.33307-1.09075c5.4763-1.98948,11.68348-4.24462,21.22678-1.16041,9.54283,3.08406,13.25575,8.54518,16.532,13.36331,3.12939,4.60237,5.83194,8.57725,13.41593,11.02825,7.58539,2.45145,12.10349.81015,17.33493-1.09015,5.47677-1.98934,11.68488-4.24417,21.22864-1.15981s13.25807,8.54593,16.53474,13.36421c3.12986,4.60252,5.83288,8.57754,13.41826,11.029a3.00868,3.00868,0,0,1,1.517,4.61344A3.08514,3.08514,0,0,1,1243.81,601.83014Z" transform="translate(-630.24408 -211.72)"/><path class="cls-7" d="M1234.5844,630.37638c-9.43276-3.09293-13.12524-8.52241-16.38468-13.31534-3.12985-4.60252-5.83287-8.57754-13.41826-11.029s-12.10349-.81016-17.33493,1.09015c-5.47677,1.98933-11.68487,4.24416-21.22863,1.1598-9.54283-3.08406-13.25622-8.54533-16.53243-13.36346-3.12939-4.60236-5.83194-8.57724-13.41547-11.02809-7.584-2.451-12.10209-.8097-17.33307,1.09075-5.4763,1.98948-11.68348,4.24462-21.22677,1.16041-9.54283-3.08406-13.25622-8.54533-16.53243-13.36346-3.10493-4.56639-5.78966-8.51506-13.23853-10.97033a3.13756,3.13756,0,0,1-2.15266-3.68734,3,3,0,0,1,3.82084-2.07967c9.54283,3.08406,13.25575,8.54518,16.532,13.36331,3.12939,4.60236,5.83194,8.57724,13.41594,11.02824s12.10209.8097,17.33307-1.09075c5.4763-1.98948,11.68348-4.24462,21.22677-1.16041,9.54283,3.08406,13.25575,8.54518,16.532,13.36331,3.12939,4.60237,5.832,8.57724,13.41594,11.02824,7.58538,2.45146,12.10349.81016,17.33493-1.09015,5.47677-1.98933,11.68488-4.24416,21.22863-1.1598s13.25808,8.54593,16.53475,13.36421c3.12986,4.60251,5.83287,8.57754,13.41826,11.029a3.00869,3.00869,0,0,1,1.517,4.61344A3.08513,3.08513,0,0,1,1234.5844,630.37638Z" transform="translate(-630.24408 -211.72)"/><path class="cls-7" d="M1225.3588,658.92263c-9.43276-3.09293-13.12524-8.52241-16.38468-13.31534-3.12986-4.60252-5.83287-8.57755-13.41826-11.029s-12.10349-.81015-17.33493,1.09015c-5.47677,1.98934-11.68488,4.24417-21.22863,1.15981-9.54283-3.08406-13.25622-8.54533-16.53243-13.36346-3.12939-4.60236-5.83194-8.57724-13.41547-11.02809-7.584-2.451-12.10209-.80971-17.33307,1.09075-5.4763,1.98948-11.68348,4.24462-21.22678,1.16041-9.54283-3.08406-13.25621-8.54533-16.53242-13.36346-3.10493-4.56639-5.78966-8.51506-13.23854-10.97034a3.13755,3.13755,0,0,1-2.15265-3.68733,3,3,0,0,1,3.82084-2.07968c9.54283,3.08406,13.25575,8.54519,16.532,13.36331,3.12939,4.60237,5.83194,8.57725,13.41593,11.02825s12.1021.8097,17.33308-1.09075c5.4763-1.98949,11.68348-4.24462,21.22677-1.16041,9.54283,3.08406,13.25575,8.54518,16.532,13.36331,3.12939,4.60236,5.83194,8.57724,13.41594,11.02824,7.58538,2.45145,12.10349.81016,17.33493-1.09015,5.47676-1.98933,11.68487-4.24417,21.22863-1.15981s13.25807,8.54594,16.53475,13.36421c3.12985,4.60252,5.83287,8.57755,13.41826,11.029a3.00868,3.00868,0,0,1,1.517,4.61344A3.08511,3.08511,0,0,1,1225.3588,658.92263Z" transform="translate(-630.24408 -211.72)"/><path id="Icon_feather-triangle" data-name="Icon feather-triangle" class="cls-8" d="M845.991,809.00717l15.0343-15.92459a2.65736,2.65736,0,0,0-1.36507-4.38263l-21.97155-4.84312a2.65737,2.65737,0,0,0-3.08114,3.40256l6.9459,20.76962a2.65735,2.65735,0,0,0,4.43756.97816Z" transform="translate(-630.24408 -211.72)"/><path id="Icon_feather-triangle-2" data-name="Icon feather-triangle" class="cls-9" d="M1136.7906,392.58923l-18.61185,16.27514a3,3,0,0,0,1.06162,5.07226l24.16916,7.811a3,3,0,0,0,3.8293-3.49161l-5.56682-24.08924a3,3,0,0,0-4.88141-1.57758Z" transform="translate(-630.24408 -211.72)"/><path id="Icon_map-circle" data-name="Icon map-circle" class="cls-10" d="M718.78,610.5a17.28,17.28,0,1,1-17.28-17.28h0A17.28,17.28,0,0,1,718.78,610.5Z" transform="translate(-630.24408 -211.72)"/><path id="Icon_map-circle-2" data-name="Icon map-circle" class="cls-10" d="M1384.78,431.5a17.28,17.28,0,1,1-17.28-17.28h0A17.28,17.28,0,0,1,1384.78,431.5Z" transform="translate(-630.24408 -211.72)"/><path id="Icon_map-circle-3" data-name="Icon map-circle" class="cls-11" d="M1371.78,740.5a17.28,17.28,0,1,1-17.28-17.28h0A17.28,17.28,0,0,1,1371.78,740.5Z" transform="translate(-630.24408 -211.72)"/><path id="Icon_map-circle-4" data-name="Icon map-circle" class="cls-12" d="M701.78,230.5a17.28,17.28,0,1,1-17.28-17.28h0A17.28,17.28,0,0,1,701.78,230.5Z" transform="translate(-630.24408 -211.72)"/></svg>